<svg version="1.2" xmlns="http://www.w3.org/2000/svg" viewBox="0 0 650 331" width="650" height="331">
	<title>Vector Smart Object-ai</title>
	<defs>
		<linearGradient id="g1" x2="1" gradientUnits="userSpaceOnUse" gradientTransform="matrix(117.808,-204.201,133.614,77.085,-56.069,113.006)">
			<stop offset="0" stop-color="#fdbe00"/>
			<stop offset="1" stop-color="#2085f6"/>
		</linearGradient>
		<linearGradient id="g2" x2="1" gradientUnits="userSpaceOnUse" gradientTransform="matrix(-89.553,146.541,-100.059,-61.147,339.628,182.825)">
			<stop offset="0" stop-color="#004477"/>
			<stop offset="1" stop-color="#027bfe"/>
		</linearGradient>
	</defs>
	<style>
		.s0 { fill: #004376 } 
		.s1 { fill: url(#g1) } 
		.s2 { fill: url(#g2) } 
		.s3 { fill: #602a67 } 
		.s4 { fill: #fdbe00 } 
	</style>
	<g id="Vrstva 1">
		<g id="&lt;Group&gt;">
			<path id="&lt;Compound Path&gt;" fill-rule="evenodd" class="s0" d="m577 235.3c0-22 12.8-34 36.6-34 23.9 0 36.4 13.5 36.4 32.6v9.6c0 4.6-2.4 6.8-7.1 6.8h-47.6v5.8c0 10.3 6.4 15.8 17.9 15.8 8.9 0 15-2.8 18.7-8.4 2.5-3.6 4.2-3.9 8-1.8l5.5 2.9c3.6 1.8 4.3 4.3 1.9 7.9q-9.2 15.2-34.1 15.2c-24.5 0-36.2-13.1-36.2-33.8zm54.7-2.5c0-10.2-6.1-16.1-18.1-16.1-11.9 0-18.3 5.9-18.3 16.1v3.5h36.4z"/>
			<path id="&lt;Compound Path&gt;" fill-rule="evenodd" class="s0" d="m428 201.3c22.5 0 33.7 10.9 33.7 32.5v40.8c0 5.5-1.2 7.1-5.7 9-6.3 2.7-15.7 4.1-28.3 4.1-13.4 0-22.6-2.1-27.6-6.3-5.1-4.1-7.6-10.6-7.6-19.3 0-18.7 10.1-25.3 35.8-25.3 1.1 0 6.2 0.3 15.1 0.7v-4.4c0-10.2-4.4-15.6-15.7-15.6q-11.6 0-16.6 7.6c-2.3 3.3-3.1 3.6-6.8 2.3l-6.3-2.6c-3.4-1.6-4.4-4-2.6-7.1 5.6-10.9 16.5-16.4 32.6-16.4zm15.4 51.2c-11-0.5-16.7-0.8-17.1-0.8-11.4 0-15.2 3.3-15.2 10.3 0 7.1 3.3 10.5 14.8 10.5 6.8 0 12-0.4 15.8-1.2 1.1-0.5 1.7-1.1 1.7-2.2z"/>
			<path id="&lt;Path&gt;" class="s0" d="m369.7 201.3q-17.8 0.5-29.4 4.7c-5 2-6.1 3.9-6.1 9v65.4c0 3.6 1.2 4.9 4.9 4.9h8.6c3.7 0 4.8-1.3 4.8-4.9v-58.6c0-1.2 0.4-1.8 1.5-1.9 4.1-1.3 9.2-1.9 15-1.9h5.7c3.6 0 4.9-1.3 4.9-4.9v-6.9c0-3.8-1.3-4.9-4.9-4.9z"/>
			<path id="&lt;Path&gt;" class="s0" d="m278.1 184.7c-3.7 0-4.9 1.1-4.9 4.8v63.3c0 13.4 2.7 22.7 8.2 27.8 5.3 5 14.6 7.4 27.9 6.9 3.7-0.1 5-1.2 5-5v-7.3c0-3.8-1.3-4.9-5-4.9-7 0-11.7-1.1-14.1-3.4q-3.8-3.6-3.8-14.7v-31.7h18c3.6 0 4.9-1.2 4.9-4.9v-7.2c0-3.6-1.3-4.8-4.9-4.8h-18v-14.1c0-3.7-1.2-4.8-4.8-4.8z"/>
			<path id="&lt;Compound Path&gt;" fill-rule="evenodd" class="s0" d="m554 189.6v84.4c0 5-1.3 6.6-6.4 8.6-8.9 3.3-18.7 5.1-29.4 5.1-22.9 0-34.2-10.6-34.2-31.9v-21.6c0-21.4 11-32.9 32.9-32.9 4.9 0 11.1 0.6 18.8 2v-13.7c0-3.6 1.1-4.9 4.7-4.9h8.7c3.6 0 4.9 1.3 4.9 4.9zm-18.3 30.4c-6.3-1.4-11.4-2-15.3-2-12.2 0-18.2 5.5-18.2 16.7v20.5c0 10.6 5.9 15.8 17.7 15.8 5.5 0 10.4-0.7 14.5-1.8 0.8-0.3 1.3-0.9 1.3-1.7z"/>
		</g>
		<path id="&lt;Path&gt;" class="s1" d="m276.9 111.4h-90.8l45.4-78.6c5.9-10.2 2.4-23.3-7.8-29.2-10.2-5.9-23.3-2.4-29.1 7.8l-63.7 110.2q-0.9 1.6-1.6 3.3 0 0.1 0 0.1-0.2 0.4-0.4 0.9 0 0.1 0 0.1-0.1 0.4-0.2 0.8-0.1 0.2-0.1 0.3-0.1 0.3-0.2 0.7 0 0.2-0.1 0.3 0 0.3-0.1 0.7 0 0.2-0.1 0.4 0 0.3-0.1 0.5 0 0.3 0 0.6 0 0.2-0.1 0.5 0 0.3 0 0.6 0 0.2 0 0.4 0 0.2-0.1 0.4 0 0.1 0 0.3 0 0.1 0 0.2 0 0.1 0 0.2 0 0.1 0 0.3 0.1 0.2 0.1 0.3 0 0.3 0 0.5 0 0 0 0 0 0.1 0 0.2 0 0.2 0 0.4 0.1 0.2 0.1 0.5 0 0.3 0 0.5 0.1 0.3 0.1 0.6 0.1 0.2 0.1 0.4 0.1 0.3 0.1 0.7 0.1 0.1 0.1 0.3 0.1 0.3 0.2 0.7 0 0.1 0.1 0.2 0.1 0.4 0.2 0.9 0 0 0 0.1 0.8 2.2 2 4.3l63.7 110.2c3.9 6.8 11.1 10.6 18.4 10.6 3.7 0 7.3-0.9 10.7-2.8 10.2-5.9 13.7-19 7.8-29.2l-45.4-78.6h90.8c11.8 0 21.3-9.5 21.3-21.3 0-11.8-9.5-21.3-21.3-21.3z"/>
		<path id="&lt;Path&gt;" class="s2" d="m168.1 142.4q0.1 0 0.1-0.1 0.1-0.1 0.1-0.3 0 0 0 0 0.2-0.2 0.3-0.5 0-0.1 0.1-0.2 0.1-0.4 0.3-0.8 0-0.1 0.1-0.2 0.1-0.3 0.2-0.7 0.1-0.2 0.1-0.3 0.2-0.3 0.2-0.7 0.1-0.2 0.2-0.4 0-0.2 0.1-0.5 0.1-0.3 0.1-0.5 0.1-0.3 0.1-0.5 0.1-0.3 0.1-0.6 0-0.2 0.1-0.3 0-0.4 0.1-0.8 0-0.1 0-0.3 0-0.2 0-0.5 0-0.1 0.1-0.2 0-0.1 0-0.1 0-0.1 0-0.2 0-0.3 0-0.5 0-0.2 0-0.4 0-0.1 0-0.1 0-0.1 0-0.1 0-0.1 0-0.1 0-0.1 0-0.3 0-0.3 0-0.5 0-0.1 0-0.2-0.1-0.4-0.1-0.9 0-0.1 0-0.2-0.1-0.4-0.1-0.8-0.1-0.1-0.1-0.3 0-0.3-0.1-0.7 0-0.2-0.1-0.4 0-0.3-0.1-0.6-0.1-0.2-0.1-0.4-0.1-0.3-0.2-0.5-0.1-0.3-0.1-0.6-0.1-0.2-0.2-0.4-0.1-0.3-0.2-0.6-0.1-0.2-0.1-0.3-0.2-0.4-0.3-0.7-0.1-0.1-0.1-0.2-0.2-0.4-0.4-0.8 0-0.1-0.1-0.2-0.1-0.2-0.2-0.5-0.1-0.1-0.2-0.3 0 0-0.1-0.1l-63.8-110.6c-5.9-10.2-19-13.7-29.2-7.8-10.2 5.9-13.6 19-7.8 29.2l45.4 78.6h-90.7c-11.8 0-21.4 9.5-21.4 21.3 0 11.8 9.6 21.3 21.4 21.3h90.7l-45.4 78.6c-5.8 10.2-2.4 23.3 7.8 29.2 3.4 1.9 7.1 2.8 10.7 2.8 7.4 0 14.5-3.8 18.5-10.6l63.8-110.6q0.1-0.1 0.1-0.1 0.1-0.2 0.2-0.4 0.1-0.2 0.2-0.5z"/>
		<g id="&lt;Group&gt;" style="opacity: .7">
			<path id="&lt;Path&gt;" class="s3" d="m180 143.3q0.1-0.2 0.2-0.4 0.1-0.2 0.2-0.5 0 0 0.1-0.1 0-0.1 0.1-0.3 0 0 0 0 0.2-0.2 0.3-0.5 0-0.1 0-0.2 0.2-0.4 0.4-0.8 0-0.1 0.1-0.2 0.1-0.3 0.2-0.7 0.1-0.2 0.1-0.3 0.1-0.3 0.2-0.7 0.1-0.2 0.1-0.4 0.1-0.2 0.2-0.5 0-0.3 0.1-0.5 0.1-0.3 0.1-0.5 0.1-0.3 0.1-0.6 0-0.2 0.1-0.3 0-0.4 0.1-0.8 0-0.1 0-0.3 0-0.2 0-0.5 0-0.1 0-0.2 0-0.1 0-0.1 0-0.1 0.1-0.2 0-0.3 0-0.5 0-0.2 0-0.4 0-0.1 0-0.1 0-0.1 0-0.1 0-0.1 0-0.1 0-0.1 0-0.3 0-0.3 0-0.5 0-0.1-0.1-0.2 0-0.4 0-0.9 0-0.1 0-0.2-0.1-0.4-0.1-0.8-0.1-0.1-0.1-0.3 0-0.3-0.1-0.7-0.1-0.2-0.1-0.4-0.1-0.3-0.1-0.6-0.1-0.2-0.1-0.4-0.1-0.3-0.2-0.5-0.1-0.3-0.2-0.6 0-0.2-0.1-0.4-0.1-0.3-0.2-0.6-0.1-0.2-0.1-0.3-0.2-0.4-0.3-0.7-0.1-0.1-0.1-0.2-0.2-0.4-0.4-0.8-0.1-0.1-0.1-0.2-0.1-0.2-0.2-0.5-0.1-0.1-0.2-0.3-0.1 0-0.1-0.1l-24.7-42.7-6.2 10.7 18.5 32q0 0.1 0 0.1 0.1 0.2 0.2 0.3 0.2 0.3 0.3 0.5 0 0.1 0.1 0.2 0.2 0.4 0.3 0.8 0.1 0.1 0.1 0.2 0.2 0.3 0.3 0.7 0.1 0.1 0.1 0.3 0.2 0.3 0.3 0.6 0.1 0.2 0.1 0.4 0.1 0.3 0.2 0.6 0.1 0.2 0.1 0.5 0.1 0.2 0.1 0.4 0.1 0.3 0.2 0.6 0 0.2 0.1 0.4 0 0.4 0.1 0.7 0 0.2 0 0.3 0.1 0.4 0.1 0.8 0 0.1 0 0.2 0.1 0.5 0.1 0.9 0 0.1 0 0.2 0 0.2 0 0.5 0 0.2 0 0.3 0 0 0 0.1 0 0 0.1 0.1-0.1 0-0.1 0.1 0 0.2 0 0.4 0 0.2 0 0.5 0 0.1 0 0.2 0 0 0 0.1 0 0.1 0 0.2 0 0.3 0 0.5-0.1 0.2-0.1 0.3 0 0.4-0.1 0.8 0 0.1 0 0.3-0.1 0.3-0.1 0.6-0.1 0.2-0.1 0.5-0.1 0.2-0.1 0.5-0.1 0.3-0.2 0.5 0 0.2-0.1 0.4-0.1 0.4-0.2 0.7 0 0.1-0.1 0.3-0.1 0.4-0.3 0.7 0 0.1 0 0.2-0.2 0.4-0.4 0.8 0 0.1 0 0.2-0.2 0.3-0.3 0.5 0 0 0 0-0.1 0.2-0.2 0.3 0 0.1 0 0.1-0.1 0.3-0.3 0.5-0.1 0.2-0.2 0.4 0 0 0 0.1l-18.5 31.9 6.2 10.8 24.7-42.7q0-0.1 0.1-0.1z"/>
		</g>
		<path id="&lt;Compound Path&gt;" fill-rule="evenodd" class="s4" d="m553.5 307.2q0.6 0 0.6 0.6v0.9q0 0.7-0.6 0.7h-11.5v8.1h10q0.6 0 0.6 0.6v0.9q0 0.7-0.6 0.7h-10v8.4h11.9q0.6 0 0.6 0.6v0.9q0 0.7-0.6 0.7h-13.6c-0.5 0-0.7-0.2-0.7-0.7v-21.8c0-0.5 0.2-0.6 0.7-0.6zm-21.1 0c0.5 0 0.6 0.1 0.6 0.6v0.9c0 0.5-0.1 0.7-0.6 0.7h-6.6v20.2c0 0.5-0.1 0.7-0.6 0.7h-1.1c-0.5 0-0.7-0.2-0.7-0.7v-20.2h-6.5c-0.5 0-0.7-0.2-0.7-0.7v-0.9c0-0.5 0.2-0.6 0.7-0.6zm-17.8 22.5c0.2 0.4 0 0.6-0.5 0.6h-0.9q-1 0-1.2-0.6l-2.4-6.2h-10.2l-2.5 6.2c-0.1 0.5-0.3 0.6-1.1 0.6h-0.9q-0.7 0-0.4-0.6l8.7-22.1q0.2-0.5 0.8-0.5h1q0.7-0.1 0.9 0.5zm-9.6-18.1q-0.5-1.4-0.5-2.3h-0.1q0 1-0.4 2.3l-4 10h8.9zm-27.5-4.4c0.5 0 0.6 0.1 0.6 0.6v20.3h11.1q0.6 0 0.6 0.6v0.9q0 0.7-0.6 0.7h-12.7c-0.5 0-0.7-0.2-0.7-0.7v-21.8c0-0.5 0.2-0.6 0.7-0.6zm-16.3 0c4.6 0 7.4 2.7 7.4 7.2 0 4.5-2.8 7.2-7.4 7.2h-7v8c0 0.5-0.1 0.7-0.6 0.7h-1.1c-0.5 0-0.6-0.2-0.6-0.7v-21.8c0-0.5 0.1-0.6 0.6-0.6zm-0.2 12.2c3.2 0 5.1-1.9 5.1-5 0-3.1-1.9-5-5.1-5h-6.8v10zm-18.4-12.2c0.5 0 0.6 0.1 0.6 0.6v21.8c0 0.5-0.1 0.7-0.6 0.7h-1c-0.5 0-0.7-0.2-0.7-0.7l0.1-13.2q0-3 0.4-5.8h-0.2q-1 2.5-2.5 5.1l-4.9 8.7q-0.3 0.5-0.8 0.5h-0.6q-0.6 0-0.8-0.5l-5-8.8q-1.3-2.1-2.4-5h-0.1c0.2 1.9 0.3 3.9 0.3 5.8v13.2c0 0.5-0.2 0.7-0.6 0.7h-1c-0.4 0-0.6-0.2-0.6-0.7v-21.8c0-0.5 0.2-0.6 0.6-0.6h0.9q0.6 0 0.9 0.5l8.1 14.3 8-14.3c0.3-0.5 0.4-0.5 0.9-0.5zm-28.8 0q0.7 0 0.7 0.6v0.9q0 0.7-0.7 0.7h-11.5v8.1h10.1q0.6 0 0.6 0.6v0.9q0 0.7-0.6 0.7h-10.1v8.4h12q0.6 0 0.6 0.6v0.9q0 0.7-0.6 0.7h-13.7c-0.4 0-0.6-0.2-0.6-0.7v-21.8c0-0.5 0.2-0.6 0.6-0.6zm-21 0c0.5 0 0.6 0.1 0.6 0.6v0.9c0 0.5-0.1 0.7-0.6 0.7h-6.6v20.2c0 0.5-0.2 0.7-0.6 0.7h-1.1c-0.5 0-0.7-0.2-0.7-0.7v-20.2h-6.6c-0.4 0-0.6-0.2-0.6-0.7v-0.9c0-0.5 0.2-0.6 0.6-0.6zm-50.1 7.7c0-5.1 3.2-8.2 9-8.2 5.7 0 8.9 3.1 8.9 8.2v7.7c0 5.1-3.2 8.2-8.9 8.2-5.8 0-9-3.1-9-8.2zm15.6 0c0-3.8-2.3-6-6.6-6-4.3 0-6.6 2.2-6.6 6v7.7c0 3.8 2.3 6 6.6 6 4.3 0 6.6-2.2 6.6-6zm-23.3 3.4c0.5 0 0.7 0.1 0.7 0.6v4c0 4.8-3.2 7.8-8.9 7.8-5.8 0-9-3.1-9-8.2v-7.6c0-5.2 3.2-8.2 8.9-8.2 4.9 0 7.5 1.8 8.7 5.6 0.2 0.4 0.1 0.6-0.4 0.8l-1 0.4c-0.4 0.1-0.7-0.1-0.9-0.4-0.9-2.9-2.7-4.2-6.4-4.2-4.3 0-6.6 2.1-6.6 5.9v7.7c0 3.8 2.4 6 6.7 6 4.2 0 6.6-2.1 6.6-5.6v-2.4h-6.3c-0.5 0-0.7-0.2-0.7-0.7v-0.9c0-0.5 0.2-0.6 0.7-0.6zm-42.4-3.4c0-5.2 3.1-8.2 8.9-8.2 5.7 0 8.9 3 8.9 8.2v7.7c0 5.1-3.2 8.1-8.9 8.1-5.8 0-8.9-3-8.9-8.1zm15.5 0c0-3.9-2.3-6-6.6-6-4.3 0-6.6 2.1-6.6 6v7.6c0 3.9 2.3 6 6.6 6 4.3 0 6.6-2.1 6.6-6zm-33.3-7.7c0.5 0 0.6 0.2 0.6 0.7v20.2h11.1q0.6 0 0.6 0.7v0.9q0 0.6-0.6 0.7h-12.8c-0.5 0-0.6-0.2-0.6-0.7v-21.8c0-0.5 0.1-0.7 0.6-0.7z"/>
	</g>
</svg>